<svg xmlns="http://www.w3.org/2000/svg" width="20" height="20" fill="none">
  <path fill="#EF8964" d="M3.25 5h-1.5a.748.748 0 0 0-.75.75V9H.25a.25.25 0 0 0-.25.25v1.5c0 .137.113.25.25.25H1v3.25c0 .416.334.75.75.75h1.5c.416 0 .75-.334.75-.75v-8.5A.748.748 0 0 0 3.25 5Zm16.5 4H19V5.75a.748.748 0 0 0-.75-.75h-1.5a.748.748 0 0 0-.75.75v8.5c0 .416.334.75.75.75h1.5c.416 0 .75-.334.75-.75V11h.75a.25.25 0 0 0 .25-.25v-1.5a.25.25 0 0 0-.25-.25Zm-5.5-6h-1.5a.748.748 0 0 0-.75.75V9H8V3.75A.748.748 0 0 0 7.25 3h-1.5a.748.748 0 0 0-.75.75v12.5c0 .416.334.75.75.75h1.5c.416 0 .75-.334.75-.75V11h4v5.25c0 .416.334.75.75.75h1.5c.416 0 .75-.334.75-.75V3.75a.748.748 0 0 0-.75-.75Z"/>
</svg>
