<svg aria-hidden="true" style="position: absolute; width: 0; height: 0; overflow: hidden;" version="1.1" xmlns="http://www.w3.org/2000/svg" xmlns:xlink="http://www.w3.org/1999/xlink">
<defs>
<symbol id="icon-dumbbell-logo" viewBox="0 0 83 32">
<path d="M80.941 13.715c1.040 0 1.882 0.843 1.882 1.882v0 0.806c0 1.040-0.843 1.882-1.882 1.882v0h-2.152c-1.040 0-1.882 0.843-1.882 1.882v0 5.378c0 1.040-0.843 1.882-1.882 1.882v0h-2.152c-1.040 0-1.882 0.843-1.882 1.882v0 0.808c0 1.040-0.843 1.882-1.882 1.882v0h-5.109c-1.040 0-1.882-0.843-1.882-1.882v0-9.95c0-1.040-0.843-1.882-1.882-1.882v0h-37.647c-1.040 0-1.882 0.843-1.882 1.882v0 9.95c0 1.040-0.843 1.882-1.882 1.882v0h-5.109c-1.040 0-1.882-0.843-1.882-1.882v0-0.808c0-1.040-0.843-1.882-1.882-1.882v0h-2.152c-1.040 0-1.882-0.843-1.882-1.882v0-5.378c0-1.040-0.843-1.882-1.882-1.882v0h-2.152c-1.040 0-1.882-0.843-1.882-1.882v0-0.806c0-1.040 0.843-1.882 1.882-1.882v0h2.152c1.040 0 1.882-0.843 1.882-1.882v0-5.378c0-1.040 0.843-1.882 1.882-1.882v0h2.152c1.040 0 1.882-0.843 1.882-1.882v0-0.808c0-1.040 0.843-1.882 1.882-1.882v0h5.109c1.040 0 1.882 0.843 1.882 1.882v0 9.95c0 1.040 0.843 1.882 1.882 1.882v0h37.647c1.040 0 1.882-0.843 1.882-1.882v0-9.95c0-1.040 0.843-1.882 1.882-1.882v0h5.109c1.040 0 1.882 0.843 1.882 1.882v0 0.808c0 1.040 0.843 1.882 1.882 1.882v0h2.152c1.040 0 1.882 0.843 1.882 1.882v0 5.378c0 1.040 0.843 1.882 1.882 1.882v0h2.152z"></path>
</symbol>
<symbol id="icon-eye-off" viewBox="0 0 32 32">
<path fill="none" stroke="#EFEDE8" stroke-linejoin="round" stroke-linecap="round" stroke-miterlimit="4" stroke-width="2.88" d="M23.92 23.92c-2.175 1.672-4.923 2.696-7.908 2.747l-0.012 0c-9.333 0-14.667-10.667-14.667-10.667 1.713-3.152 3.978-5.791 6.689-7.877l0.058-0.043M13.2 5.653c0.833-0.203 1.788-0.32 2.771-0.32 0.010 0 0.020 0 0.030 0h-0.002c9.333 0 14.667 10.667 14.667 10.667-0.872 1.615-1.827 3.008-2.91 4.289l0.030-0.036M18.827 18.827c-0.731 0.774-1.764 1.256-2.91 1.256-2.209 0-4-1.791-4-4 0-1.146 0.482-2.179 1.254-2.909l0.002-0.002M1.333 1.333l29.334 29.334"></path>
</symbol>
<symbol id="icon-eye" viewBox="0 0 32 32">
<path fill="none" stroke="#EFEDE8" stroke-linejoin="round" stroke-linecap="round" stroke-miterlimit="4" stroke-width="2.88" d="M1.333 16s5.334-10.667 14.667-10.667 14.667 10.667 14.667 10.667-5.334 10.667-14.667 10.667-14.667-10.667-14.667-10.667z"></path>
<path fill="none" stroke="#EFEDE8" stroke-linejoin="round" stroke-linecap="round" stroke-miterlimit="4" stroke-width="2.88" d="M16 20c2.209 0 4-1.791 4-4s-1.791-4-4-4v0c-2.209 0-4 1.791-4 4s1.791 4 4 4v0z"></path>
</symbol>
<symbol id="icon-dumbbell" viewBox="0 0 32 32">
<path d="M5.2 8h-2.4c-0.001 0-0.002 0-0.003 0-0.661 0-1.197 0.536-1.197 1.197 0 0.001 0 0.002 0 0.003v-0 5.2h-1.2c-0.221 0-0.4 0.179-0.4 0.4v0 2.4c0 0.219 0.181 0.4 0.4 0.4h1.2v5.2c0 0.666 0.534 1.2 1.2 1.2h2.4c0.666 0 1.2-0.534 1.2-1.2v-13.6c0-0.001 0-0.002 0-0.003 0-0.661-0.536-1.197-1.197-1.197-0.001 0-0.002 0-0.003 0h0zM31.6 14.4h-1.2v-5.2c0-0.001 0-0.002 0-0.003 0-0.661-0.536-1.197-1.197-1.197-0.001 0-0.002 0-0.003 0h-2.4c-0.001 0-0.002 0-0.003 0-0.661 0-1.197 0.536-1.197 1.197 0 0.001 0 0.002 0 0.003v-0 13.6c0 0.666 0.534 1.2 1.2 1.2h2.4c0.666 0 1.2-0.534 1.2-1.2v-5.2h1.2c0.221 0 0.4-0.179 0.4-0.4v0-2.4c0-0.221-0.179-0.4-0.4-0.4v0zM22.8 4.8h-2.4c-0.001 0-0.002 0-0.003 0-0.661 0-1.197 0.536-1.197 1.197 0 0.001 0 0.002 0 0.003v-0 8.4h-6.4v-8.4c0-0.001 0-0.002 0-0.003 0-0.661-0.536-1.197-1.197-1.197-0.001 0-0.002 0-0.003 0h-2.4c-0.001 0-0.002 0-0.003 0-0.661 0-1.197 0.536-1.197 1.197 0 0.001 0 0.002 0 0.003v-0 20c0 0.666 0.534 1.2 1.2 1.2h2.4c0.666 0 1.2-0.534 1.2-1.2v-8.4h6.4v8.4c0 0.666 0.534 1.2 1.2 1.2h2.4c0.666 0 1.2-0.534 1.2-1.2v-20c0-0.001 0-0.002 0-0.003 0-0.661-0.536-1.197-1.197-1.197-0.001 0-0.002 0-0.003 0h0z"></path>
</symbol>
<symbol id="icon-apple" viewBox="0 0 32 32">
<path d="M19.454 4.758c0.32-0.109 0.546-0.407 0.546-0.758 0-0.442-0.358-0.8-0.8-0.8-0.091 0-0.178 0.015-0.259 0.043l0.006-0.002c-1.501 0.499-2.435 1.731-2.986 3.051-0.054 0.121-0.123 0.301-0.185 0.483l-0.018 0.059c-0.719-1.345-1.864-2.384-3.253-2.948l-0.043-0.015c-0.699-0.286-1.51-0.452-2.36-0.452-0.065 0-0.13 0.001-0.195 0.003l0.009-0c-0.928 0.026-1.669 0.768-1.694 1.694-0.002 0.055-0.003 0.12-0.003 0.185 0 1.765 0.716 3.363 1.875 4.519l0 0 0.050 0.048c-2.738 0.608-4.793 2.908-5.026 5.724l-0.002 0.023-0.010 0.118c-0.028 0.325-0.043 0.704-0.043 1.087 0 2.387 0.615 4.63 1.695 6.58l-0.035-0.070 0.576 1.053c0.016 0.027 0.032 0.054 0.051 0.080l1.6 2.243c0.789 1.095 2.061 1.799 3.496 1.799 1.186 0 2.26-0.481 3.038-1.258l-0 0c0.132-0.132 0.314-0.214 0.516-0.214s0.384 0.082 0.516 0.214l0 0c0.777 0.778 1.852 1.259 3.038 1.259 1.436 0 2.707-0.705 3.487-1.787l0.009-0.013 1.6-2.242c0.017-0.023 0.034-0.050 0.049-0.078l0.002-0.004 0.574-1.053c1.045-1.88 1.659-4.123 1.659-6.51 0-0.382-0.016-0.761-0.047-1.136l0.003 0.049-0.008-0.118c-0.271-3.308-3.022-5.889-6.377-5.889-0.373 0-0.738 0.032-1.093 0.093l0.038-0.005-2.651 0.442c0.016-1.090 0.208-2.315 0.638-3.349 0.448-1.080 1.114-1.848 2.013-2.149h0.002zM11.054 14.358c-0.503 0.162-0.907 0.508-1.142 0.957l-0.005 0.011c-0.296 0.557-0.499 1.475-0.312 2.974 0.003 0.024 0.004 0.052 0.004 0.080 0 0.442-0.358 0.8-0.8 0.8-0.4 0-0.732-0.294-0.791-0.678l-0.001-0.004c-0.213-1.702-0.016-2.984 0.488-3.926 0.512-0.96 1.291-1.478 2.053-1.733 0.075-0.026 0.162-0.041 0.253-0.041 0.442 0 0.8 0.358 0.8 0.8 0 0.351-0.227 0.65-0.542 0.758l-0.006 0.002z"></path>
</symbol>
<symbol id="icon-bubble" viewBox="0 0 32 32">
<path d="M20.794 16.346c3.778 0 6.84-3.062 6.84-6.84s-3.062-6.84-6.84-6.84v0c-3.778 0-6.84 3.062-6.84 6.84s3.062 6.84 6.84 6.84v0zM8.475 25.92c2.268 0 4.107-1.839 4.107-4.107s-1.839-4.107-4.107-4.107v0c-2.233 0.045-4.026 1.867-4.026 4.106s1.793 4.061 4.022 4.106l0.004 0zM22.15 29.333c1.885 0 3.414-1.528 3.414-3.414s-1.528-3.414-3.414-3.414v0c-1.885 0-3.414 1.528-3.414 3.414s1.528 3.414 3.414 3.414v0z"></path>
</symbol>
<symbol id="icon-calendar" viewBox="0 0 32 32">
<path stroke-linejoin="round" fill="none" stroke-linecap="round" stroke-miterlimit="4" stroke-width="2.6667" d="M25.333 5.333h-18.667c-1.473 0-2.667 1.194-2.667 2.667v0 18.667c0 1.473 1.194 2.667 2.667 2.667v0h18.667c1.473 0 2.667-1.194 2.667-2.667v0-18.667c0-1.473-1.194-2.667-2.667-2.667v0zM21.333 2.667v5.333M10.667 2.667v5.333M4 13.333h24"></path>
</symbol>
<symbol id="icon-calories" viewBox="0 0 32 32">
<path d="M16 22.291c-0.944 0.72-2.896 2.501-2.896 4.925 0 1.602 1.299 2.904 2.896 2.904s2.896-1.302 2.896-2.904c0-2.296-1.952-4.16-2.896-4.925z"></path>
<path d="M22.789 5.57c-0.172-0.194-0.422-0.316-0.701-0.316-0.247 0-0.472 0.096-0.639 0.252l0.001-0-4.413 4.117v-8.624c0-0.72-0.869-1.259-1.52-0.864-0.125 0.074-3.058 1.862-6.021 5.114-3.6 3.952-6.054 8.765-6.054 14.163 0.002 6.942 5.634 12.589 12.558 12.589-2.637-0.007-4.771-2.146-4.771-4.784 0 0 0 0 0-0v0c0-4.261 4.138-6.784 4.314-6.891 0.137-0.083 0.303-0.132 0.48-0.132 0.192 0 0.37 0.058 0.519 0.157l-0.003-0.002c0.173 0.114 4.234 2.838 4.234 6.869 0 0 0 0 0 0 0 2.638-2.135 4.777-4.77 4.784h-0.001c6.923 0 12.557-5.648 12.557-12.587 0-5.242-2.312-9.938-5.768-13.843z"></path>
</symbol>
<symbol id="icon-check_mark" viewBox="0 0 33 32">
<path d="M11.238 0.428l4.69 1.356c0.34 0.098 0.7 0.099 1.039 0.002l4.83-1.375c0.154-0.046 0.332-0.072 0.515-0.072 0.708 0 1.325 0.391 1.646 0.969l0.005 0.010 2.506 4.577c0.168 0.307 0.419 0.561 0.724 0.734l3.986 2.258c0.574 0.33 0.954 0.939 0.954 1.638 0 0.2-0.031 0.393-0.089 0.574l0.004-0.013-1.38 4.428c-0.054 0.168-0.085 0.361-0.085 0.561 0 0.198 0.031 0.389 0.087 0.568l-0.004-0.013 1.394 4.521c0.053 0.166 0.084 0.357 0.084 0.555 0 0.69-0.371 1.293-0.924 1.62l-0.009 0.005-4.443 2.598c-0.303 0.177-0.55 0.435-0.715 0.746l-2.113 4.004c-0.322 0.601-0.946 1.003-1.664 1.003-0.171 0-0.336-0.023-0.494-0.065l0.013 0.003-4.864-1.284c-0.144-0.040-0.309-0.062-0.48-0.062-0.173 0-0.341 0.023-0.501 0.067l0.013-0.003-4.713 1.264c-0.146 0.041-0.315 0.064-0.488 0.064-0.735 0-1.372-0.422-1.682-1.037l-0.005-0.011-2.106-4.256c-0.181-0.36-0.461-0.646-0.806-0.829l-0.010-0.005-4.305-2.247c-0.606-0.321-1.012-0.947-1.012-1.669 0-0.178 0.025-0.351 0.071-0.514l-0.003 0.013 1.256-4.548c0.089-0.322 0.090-0.662 0.004-0.985l-1.287-4.841c-0.040-0.145-0.063-0.312-0.063-0.484 0-0.704 0.386-1.317 0.958-1.64l0.009-0.005 4.422-2.46c0.321-0.178 0.584-0.447 0.754-0.774l2.090-4.006c0.321-0.606 0.947-1.012 1.669-1.012 0.186 0 0.366 0.027 0.536 0.077l-0.013-0.003z"></path>
<path stroke="#EFEDE8"  stroke-linejoin="round" stroke-linecap="round" stroke-miterlimit="4" stroke-width="2" d="M16.5 10.75v10.5M11.25 16h10.5"></path>
</symbol>
<symbol id="icon-exclamation-mark" viewBox="0 0 32 32">
<path stroke="none" d="M32 16c0 8.837-7.163 16-16 16s-16-7.163-16-16c0-8.837 7.163-16 16-16s16 7.163 16 16z"></path>
<path stroke="#EFEDE8" stroke-linejoin="round" stroke-linecap="round" stroke-miterlimit="4" stroke-width="2.6667" d="M16 25.333v0.013M16 20v-13.333"></path>
</symbol>
<symbol id="icon-fluent_food" viewBox="0 0 32 32">
<path d="M24 4c0.682 0 1.244 0.511 1.324 1.171l0.001 0.006 0.008 0.155v21.334c-0.015 0.725-0.607 1.307-1.334 1.307-0.673 0-1.229-0.498-1.321-1.145l-0.001-0.007-0.010-0.155v-6.667h-1.334c-0.681-0-1.243-0.512-1.323-1.171l-0.001-0.006-0.010-0.155v-8c0-2.947 2-6.667 4-6.667zM16 4c0.682 0 1.244 0.511 1.324 1.171l0.001 0.006 0.008 0.155v6.667c-0.001 2.472-1.682 4.551-3.963 5.156l-0.037 0.008v9.502c-0.002 0.734-0.598 1.328-1.333 1.328-0.68 0-1.241-0.509-1.323-1.167l-0.001-0.006-0.010-0.155v-9.502c-2.23-0.59-3.869-2.532-3.995-4.876l-0.001-0.013-0.005-0.275v-6.667c0.003-0.734 0.598-1.328 1.333-1.328 0.68 0 1.241 0.509 1.323 1.167l0.001 0.006 0.010 0.155v6.667c0.001 0.982 0.531 1.839 1.322 2.302l0.013 0.007v-8.976c0.002-0.734 0.598-1.328 1.333-1.328 0.68 0 1.241 0.509 1.323 1.167l0.001 0.006 0.010 0.155 0.002 8.976c0.738-0.432 1.245-1.191 1.322-2.073l0.001-0.010 0.010-0.226v-6.667c0-0.736 0.597-1.333 1.333-1.333v0z"></path>
</symbol>
<symbol id="icon-user" viewBox="0 0 32 32">
<path fill="rgba(239, 237, 232, 0.3)" d="M16 5.333c2.946 0 5.333 2.388 5.333 5.333s-2.388 5.333-5.333 5.333v0c-2.946 0-5.333-2.388-5.333-5.333s2.388-5.333 5.333-5.333v0zM16 26.667s10.667 0 10.667-2.667c0-3.2-5.2-6.667-10.667-6.667s-10.667 3.467-10.667 6.667c0 2.667 10.667 2.667 10.667 2.667z"></path>
</symbol>
<symbol id="icon-logout" viewBox="0 0 32 32">
<path stroke-linejoin="round" stroke-linecap="round" stroke-miterlimit="4" stroke-width="2.4" d="M12 4h-1.6c-2.24 0-3.36 0-4.216 0.435-0.756 0.391-1.358 0.992-1.738 1.727l-0.011 0.022c-0.435 0.856-0.435 1.976-0.435 4.216v11.2c0 2.24 0 3.36 0.435 4.216 0.391 0.756 0.992 1.357 1.726 1.737l0.022 0.011c0.856 0.437 1.976 0.437 4.216 0.437h1.6M21.333 22.667l6.667-6.667M28 16l-6.667-6.667M28 16h-16"></path>
</symbol>
<symbol id="icon-play" viewBox="0 0 32 32">
<path stroke="none" stroke-linejoin="round" stroke-linecap="round" stroke-miterlimit="4" stroke-width="1" d="M4 10.4c0-2.24 0-3.36 0.436-4.216 0.391-0.756 0.992-1.357 1.726-1.737l0.022-0.011c0.856-0.436 1.976-0.436 4.216-0.436h11.2c2.24 0 3.36 0 4.216 0.436 0.756 0.391 1.357 0.992 1.738 1.726l0.011 0.022c0.436 0.856 0.436 1.976 0.436 4.216v11.2c0 2.24 0 3.36-0.436 4.216-0.391 0.756-0.992 1.357-1.726 1.738l-0.022 0.011c-0.856 0.436-1.976 0.436-4.216 0.436h-11.2c-2.24 0-3.36 0-4.216-0.436-0.756-0.391-1.357-0.992-1.737-1.726l-0.011-0.022c-0.436-0.856-0.436-1.976-0.436-4.216v-11.2z"></path>
<path  stroke="#EFEDE8" fill="#EFEDE8" stroke-linejoin="round" stroke-linecap="round" stroke-miterlimit="4" stroke-width="1.3" d="M11.917 10.75l8.166 5.25-8.166 5.25v-10.5z"></path>
</symbol>
<symbol id="icon-pause" viewBox="0 0 32 32">
<path stroke="none" stroke-linejoin="round" stroke-linecap="round" stroke-miterlimit="4" stroke-width="1" d="M4 10.4c0-2.24 0-3.36 0.436-4.216 0.391-0.756 0.992-1.357 1.726-1.737l0.022-0.011c0.856-0.436 1.976-0.436 4.216-0.436h11.2c2.24 0 3.36 0 4.216 0.436 0.756 0.391 1.357 0.992 1.738 1.726l0.011 0.022c0.436 0.856 0.436 1.976 0.436 4.216v11.2c0 2.24 0 3.36-0.436 4.216-0.391 0.756-0.992 1.357-1.726 1.738l-0.022 0.011c-0.856 0.436-1.976 0.436-4.216 0.436h-11.2c-2.24 0-3.36 0-4.216-0.436-0.756-0.391-1.357-0.992-1.737-1.726l-0.011-0.022c-0.436-0.856-0.436-1.976-0.436-4.216v-11.2z"></path>
<path  stroke="#EFEDE8" stroke-linejoin="round" stroke-linecap="round" stroke-miterlimit="4" stroke-width="1.3" d="M12.666 20v-8M19.333 20v-8"></path>
</symbol>
<symbol id="icon-running" viewBox="0 0 32 32">
<path d="M29.648 9.451c-0.219-0.26-0.545-0.424-0.909-0.424-0.29 0-0.556 0.104-0.762 0.277l0.002-0.002-3.28 2.757-1.51-3.739c-0.056-0.14-0.134-0.261-0.229-0.364l0.001 0.001c-0.321-0.716-0.875-1.281-1.563-1.608l-0.019-0.008c-0.32-0.146-0.651-0.224-0.982-0.262-0.072-0.038-0.139-0.088-0.222-0.114l-5.776-1.61c-0.093-0.026-0.199-0.041-0.31-0.041-0.223 0-0.432 0.062-0.611 0.169l0.005-0.003c-0.33 0.108-0.59 0.352-0.717 0.664l-0.003 0.008-2.174 5.592c-0.050 0.127-0.079 0.273-0.079 0.427 0 0.501 0.31 0.929 0.748 1.103l0.008 0.003c0.126 0.050 0.272 0.079 0.425 0.079 0.5 0 0.928-0.31 1.103-0.748l0.003-0.008 1.837-4.723 2.63 0.731c-0.064 0.104-0.133 0.202-0.186 0.312l-3.371 7.312c-0.048 0.107-0.075 0.216-0.11 0.326l-4.098 6.87-6.859 2.294c-0.42 0.323-0.687 0.826-0.687 1.391 0 0.968 0.784 1.752 1.752 1.752 0.381 0 0.733-0.122 1.021-0.328l-0.005 0.004 7.019-2.416c0.216-0.157 0.371-0.362 0.49-0.581 0.088-0.094 0.189-0.168 0.256-0.285l2.443-4.096 4.336 3.696-4.64 5.229c-0.273 0.307-0.439 0.714-0.439 1.16 0 0.967 0.784 1.751 1.751 1.751 0.521 0 0.99-0.228 1.31-0.589l0.002-0.002 5.79-6.523c0.179-0.202 0.288-0.432 0.36-0.675 0.043-0.133 0.043-0.269 0.053-0.406 0-0.069 0.027-0.131 0.021-0.195-0.009-0.509-0.239-0.963-0.598-1.272l-0.002-0.002-3.992-3.403c0.288-0.274 0.533-0.6 0.709-0.982l2.586-5.6 0.829 2.208c0.031 0.211 0.116 0.398 0.242 0.551l-0.002-0.002c0.121 0.138 0.273 0.247 0.445 0.314l0.008 0.003c0.018 0.008 0.038 0.010 0.059 0.016 0.096 0.040 0.208 0.069 0.325 0.080l0.005 0c0.024 0.002 0.052 0.003 0.081 0.003 0.116 0 0.227-0.017 0.332-0.050l-0.008 0.002h0.005c0.037-0.010 0.074-0.003 0.11-0.019 0.186-0.076 0.343-0.192 0.464-0.337l0.002-0.002 4.71-3.997c0.501-0.422 0.288-1.168-0.133-1.667zM23.69 6.602c1.823 0 3.301-1.478 3.301-3.301s-1.478-3.301-3.301-3.301v0c-1.823 0-3.301 1.478-3.301 3.301s1.478 3.301 3.301 3.301v0z"></path>
</symbol>
<symbol id="icon-settings" viewBox="0 0 32 32">
<path  fill="none" stroke="rgba(239, 237, 232, 0.3)" stroke-linejoin="round" stroke-linecap="round" stroke-miterlimit="4" stroke-width="2.2857" d="M16 20c2.209 0 4-1.791 4-4s-1.791-4-4-4v0c-2.209 0-4 1.791-4 4s1.791 4 4 4v0z"></path>
<path fill="none" stroke="rgba(239, 237, 232, 0.3)" stroke-linejoin="round" stroke-linecap="round" stroke-miterlimit="4" stroke-width="2.2857" d="M24.971 19.637c-0.108 0.238-0.17 0.515-0.17 0.807 0 0.544 0.218 1.038 0.571 1.399l-0-0 0.072 0.073c0.439 0.439 0.711 1.045 0.711 1.715s-0.272 1.276-0.711 1.715l-0 0c-0.439 0.439-1.045 0.711-1.715 0.711s-1.277-0.272-1.715-0.711l-0.072-0.072c-0.36-0.353-0.854-0.57-1.398-0.57-0.292 0-0.57 0.063-0.82 0.175l0.013-0.005c-0.716 0.313-1.209 1.013-1.213 1.829v0.206c0 1.339-1.086 2.425-2.425 2.425s-2.425-1.086-2.425-2.425v0-0.109c-0.020-0.838-0.553-1.546-1.295-1.825l-0.014-0.005c-0.238-0.108-0.515-0.17-0.807-0.17-0.544 0-1.038 0.218-1.399 0.571l0-0-0.073 0.072c-0.439 0.439-1.045 0.711-1.715 0.711-1.34 0-2.426-1.086-2.426-2.426 0-0.67 0.271-1.276 0.71-1.715l0.073-0.073c0.353-0.36 0.57-0.854 0.57-1.398 0-0.292-0.063-0.57-0.175-0.82l0.005 0.013c-0.313-0.716-1.013-1.208-1.829-1.211h-0.206c-1.339 0-2.425-1.086-2.425-2.425s1.086-2.425 2.425-2.425v0h0.109c0.838-0.021 1.546-0.553 1.825-1.296l0.005-0.014c0.108-0.238 0.17-0.515 0.17-0.807 0-0.544-0.218-1.038-0.571-1.399l0 0-0.072-0.073c-0.439-0.439-0.71-1.045-0.71-1.715 0-1.339 1.086-2.425 2.425-2.425 0.67 0 1.276 0.271 1.715 0.71v0l0.073 0.072c0.36 0.353 0.854 0.57 1.398 0.57 0.292 0 0.57-0.063 0.82-0.175l-0.013 0.005h0.097c0.716-0.313 1.208-1.013 1.211-1.829v-0.206c0-1.339 1.086-2.425 2.425-2.425s2.425 1.086 2.425 2.425v0 0.109c0.003 0.817 0.495 1.518 1.199 1.826l0.013 0.005c0.238 0.108 0.515 0.17 0.807 0.17 0.544 0 1.038-0.218 1.399-0.571l0.073-0.073c0.439-0.439 1.045-0.711 1.715-0.711 1.34 0 2.426 1.086 2.426 2.426 0 0.67-0.271 1.276-0.71 1.715l-0.073 0.073c-0.353 0.36-0.57 0.854-0.57 1.398 0 0.292 0.063 0.57 0.175 0.82l-0.005-0.013v0.097c0.313 0.716 1.014 1.208 1.83 1.211h0.206c1.339 0 2.425 1.086 2.425 2.425s-1.086 2.425-2.425 2.425v0h-0.109c-0.817 0.003-1.518 0.495-1.826 1.199l-0.005 0.013z"></path>
</symbol>
<symbol id="icon-successes" viewBox="0 0 32 32">
<path  fill="#3CBF61" stroke="none" d="M16 29.334c-7.364 0-13.333-5.969-13.333-13.333s5.969-13.333 13.333-13.333v0c7.364 0 13.333 5.969 13.333 13.333s-5.969 13.333-13.333 13.333v0zM14.46 21.98l9.426-9.428-1.886-1.886-7.54 7.544-3.776-3.772-1.884 1.884 5.656 5.658z"></path>
</symbol>
<symbol id="icon-error" viewBox="0 0 32 32">
<path  fill="#D80027" stroke="none" d="M16 29.334c-7.364 0-13.333-5.969-13.333-13.333s5.969-13.333 13.333-13.333v0c7.364 0 13.333 5.969 13.333 13.333s-5.969 13.333-13.333 13.333v0zM14.46 21.98l9.426-9.428-1.886-1.886-7.54 7.544-3.776-3.772-1.884 1.884 5.656 5.658z"></path>
</symbol>
<symbol id="icon-start" viewBox="0 0 32 32">
<path stroke-linejoin="round" stroke-linecap="round" stroke-miterlimit="4" stroke-width="2.6" d="M15 28l13-13M28 15l-13-13M28 15h-26"></path>
</symbol>
<symbol id="icon-search" viewBox="0 0 32 32">
<path stroke-linejoin="round" stroke-linecap="round" stroke-miterlimit="4" stroke-width="2.6667" d="M14.667 25.333c5.891 0 10.667-4.776 10.667-10.667s-4.776-10.667-10.667-10.667v0c-5.891 0-10.667 4.776-10.667 10.667s4.776 10.667 10.667 10.667v0zM28 28l-5.801-5.799"></path>
</symbol>
<symbol id="icon-x" viewBox="0 0 32 32">
<path stroke-linejoin="round" stroke-linecap="round" stroke-miterlimit="4" stroke-width="3.5556" d="M24 8l-16 16M8 8l16 16"></path>
</symbol>
<symbol id="icon-back" viewBox="0 0 32 32">
<path stroke-linejoin="round" stroke-linecap="round" stroke-miterlimit="4" stroke-width="2.6" d="M17 28l-13-13M4 15l13-13M4 15h26"></path>
</symbol>
<symbol id="icon-trash" viewBox="0 0 32 32">
<path fill="none" stroke="#EF8964" stroke-linejoin="round" stroke-linecap="round" stroke-miterlimit="4" stroke-width="2.4" d="M12 4h8M13.333 14v6.667M18.667 14v6.667M4 8h24M25.333 8l-0.934 14.026c-0.141 2.104-0.211 3.157-0.666 3.955-0.405 0.703-0.997 1.258-1.708 1.609l-0.023 0.010c-0.826 0.4-1.88 0.4-3.989 0.4h-4.026c-2.109 0-3.163 0-3.989-0.4-0.734-0.361-1.326-0.917-1.721-1.6l-0.010-0.019c-0.454-0.8-0.525-1.851-0.666-3.955l-0.934-14.026"></path>
</symbol>
<symbol id="icon-running-exercises-page" viewBox="0 0 32 32">
<path fill="#efa082" style="fill: var(--color1, #efa082)" d="M32 16c0 8.837-7.163 16-16 16s-16-7.163-16-16c0-8.837 7.163-16 16-16s16 7.163 16 16z"></path>
<path fill="#efede8" style="fill: var(--color2, #efede8)" d="M25.098 11.634c-0.279-0.334-0.777-0.378-1.111-0.099l-2.188 1.838-1.006-2.493c-0.036-0.094-0.090-0.172-0.153-0.241-0.206-0.457-0.563-0.85-1.055-1.078-0.214-0.097-0.434-0.149-0.655-0.174-0.049-0.025-0.093-0.059-0.148-0.076l-3.85-1.073c-0.216-0.059-0.433-0.021-0.611 0.083-0.211 0.072-0.393 0.225-0.479 0.448l-1.45 3.728c-0.157 0.405 0.044 0.863 0.451 1.022 0.404 0.157 0.863-0.045 1.021-0.452l1.225-3.148 1.754 0.488c-0.043 0.069-0.089 0.134-0.124 0.208l-2.248 4.873c-0.032 0.072-0.050 0.144-0.073 0.218l-2.732 4.58-4.572 1.529c-0.518 0.387-0.627 1.116-0.245 1.633 0.385 0.519 1.116 0.628 1.632 0.246l4.679-1.612c0.143-0.104 0.247-0.24 0.326-0.387 0.059-0.062 0.126-0.112 0.171-0.189l1.629-2.731 2.891 2.464-3.094 3.487c-0.426 0.481-0.383 1.221 0.099 1.646 0.482 0.429 1.22 0.383 1.648-0.099l3.861-4.349c0.12-0.134 0.192-0.289 0.24-0.451 0.029-0.088 0.029-0.179 0.036-0.27 0-0.046 0.017-0.088 0.014-0.131-0.010-0.319-0.14-0.628-0.401-0.849l-2.661-2.269c0.192-0.183 0.355-0.4 0.473-0.655l1.724-3.733 0.552 1.471c0.023 0.131 0.067 0.259 0.159 0.366 0.083 0.099 0.189 0.165 0.303 0.211 0.012 0.006 0.025 0.007 0.039 0.010 0.072 0.025 0.144 0.050 0.219 0.053 0.089 0.008 0.179-0.003 0.27-0.029 0.002-0.001 0.003-0.001 0.003-0.001 0.024-0.006 0.049-0.001 0.073-0.012 0.128-0.048 0.226-0.131 0.311-0.226l3.14-2.665c0.334-0.281 0.193-0.777-0.088-1.111z"></path>
<path fill="#efede8" style="fill: var(--color2, #efede8)" d="M21.128 9.735c1.215 0 2.201-0.985 2.201-2.201s-0.985-2.201-2.201-2.201c-1.215 0-2.201 0.985-2.201 2.201s0.985 2.201 2.201 2.201z"></path>
</symbol>
</defs>
</svg>
