<svg aria-hidden="true" style="position: absolute; width: 0; height: 0; overflow: hidden;" version="1.1"
    xmlns="http://www.w3.org/2000/svg" xmlns:xlink="http://www.w3.org/1999/xlink">
    <defs>
    <symbol id="icon-logoText" viewBox="0 0 188 32">
<path d="M0 29.873v-26.353h9.412c1.431 0 2.724 0.358 3.878 1.073 2.286 1.426 3.784 3.927 3.784 6.778 0 0.026-0 0.052-0 0.078l0-0.004c0 1.481-0.352 2.824-1.054 4.028-0.686 1.183-1.626 2.147-2.751 2.841l-0.035 0.020c-1.167 0.702-2.441 1.054-3.821 1.054h-4.819v10.485h-4.593zM4.593 14.795h4.329c0.653 0 1.248-0.164 1.788-0.489s0.966-0.766 1.28-1.318c0.326-0.552 0.489-1.167 0.489-1.845 0-0.015 0-0.034 0-0.052 0-0.668-0.182-1.293-0.499-1.828l0.009 0.017c-0.311-0.547-0.744-0.992-1.264-1.309l-0.016-0.009c-0.5-0.307-1.106-0.49-1.754-0.49-0.012 0-0.024 0-0.036 0h-4.328v7.322zM27.511 30.362c-1.732 0-3.313-0.446-4.744-1.336-1.419-0.901-2.569-2.105-3.381-3.527l-0.026-0.049c-0.794-1.406-1.262-3.087-1.262-4.878 0-0.039 0-0.078 0.001-0.116l-0 0.006c0-1.38 0.245-2.667 0.734-3.859 0.489-1.205 1.16-2.259 2.014-3.162 0.836-0.888 1.836-1.61 2.953-2.122l0.059-0.024c1.058-0.488 2.297-0.772 3.601-0.772 0.018 0 0.035 0 0.053 0h-0.003c1.732 0 3.307 0.446 4.725 1.336 1.428 0.897 2.581 2.11 3.382 3.546l0.025 0.050c0.853 1.506 1.28 3.176 1.28 5.007 0 1.368-0.245 2.648-0.734 3.84-0.505 1.223-1.191 2.272-2.037 3.167l0.005-0.005c-0.853 0.904-1.85 1.613-2.993 2.127-1.129 0.514-2.347 0.772-3.652 0.772zM27.511 25.769c0.915 0 1.737-0.245 2.466-0.734 0.727-0.489 1.299-1.135 1.713-1.939 0.425-0.804 0.64-1.681 0.64-2.635 0-0.979-0.22-1.869-0.659-2.673-0.414-0.799-1.008-1.454-1.731-1.927l-0.019-0.012c-0.666-0.46-1.491-0.734-2.38-0.734-0.010 0-0.020 0-0.031 0h0.002c-0.904 0-1.72 0.245-2.447 0.734-0.728 0.489-1.306 1.143-1.732 1.958-0.427 0.815-0.64 1.7-0.64 2.654 0 0.992 0.22 1.888 0.659 2.692s1.022 1.444 1.751 1.92c0.74 0.465 1.544 0.696 2.409 0.696zM48.683 29.873h-4.555l-6.287-18.824h4.499l4.085 12.179 4.066-12.179h4.536l4.066 12.179 4.085-12.179h4.499l-6.287 18.824h-4.555l-4.085-12.235-4.066 12.235zM78.024 30.362c-1.732 0-3.313-0.446-4.744-1.336-1.423-0.904-2.573-2.115-3.381-3.546l-0.026-0.050c-0.794-1.406-1.262-3.087-1.262-4.877 0-0.039 0-0.078 0.001-0.117l-0 0.006c0-1.368 0.245-2.648 0.734-3.84 0.489-1.205 1.161-2.259 2.014-3.162 0.866-0.917 1.871-1.632 3.012-2.146 1.058-0.488 2.297-0.772 3.601-0.772 0.018 0 0.035 0 0.053 0h-0.003c0.030-0 0.066-0.001 0.101-0.001 1.433 0 2.785 0.348 3.975 0.964l-0.048-0.023c1.245 0.627 2.288 1.483 3.11 2.522l0.015 0.019c1.398 1.762 2.242 4.017 2.242 6.47 0 0.547-0.042 1.083-0.123 1.607l0.007-0.058h-13.76c0.177 0.702 0.465 1.336 0.866 1.901 0.403 0.552 0.911 0.998 1.525 1.336 0.616 0.326 1.312 0.495 2.089 0.508 0.804 0.013 1.532-0.175 2.184-0.565 0.666-0.401 1.218-0.941 1.656-1.619l4.687 1.092c-0.777 1.682-1.945 3.068-3.394 4.082l-0.032 0.021c-1.517 1.054-3.219 1.581-5.101 1.581zM73.393 18.579h9.261c-0.137-0.753-0.433-1.431-0.885-2.033-0.432-0.604-0.979-1.098-1.613-1.455l-0.025-0.013c-0.6-0.343-1.32-0.546-2.086-0.546-0.008 0-0.015 0-0.023 0h0.001c-0.753 0-1.449 0.183-2.089 0.546-0.64 0.352-1.186 0.834-1.638 1.449-0.439 0.602-0.74 1.286-0.904 2.052zM90.387 29.873l-0.019-18.824h4.593l0.019 1.675c0.64-0.678 1.406-1.21 2.296-1.6 0.831-0.381 1.802-0.603 2.826-0.603 0.019 0 0.038 0 0.057 0l-0.003-0c0.691 0 1.38 0.1 2.071 0.301l-1.807 4.631c-0.434-0.18-0.937-0.284-1.465-0.284-0.737 0-1.427 0.204-2.016 0.558l0.018-0.010c-0.602 0.352-1.086 0.834-1.449 1.449-0.352 0.602-0.527 1.274-0.527 2.014v10.692h-4.593zM104.339 29.873v-26.353h9.412c1.431 0 2.722 0.358 3.878 1.073 2.286 1.426 3.784 3.927 3.784 6.778 0 0.026-0 0.052-0 0.078l0-0.004c0 1.481-0.352 2.824-1.054 4.028-0.686 1.183-1.626 2.147-2.751 2.841l-0.035 0.020c-1.167 0.702-2.441 1.054-3.821 1.054h-4.819v10.485h-4.593zM108.932 14.795h4.329c0.651 0 1.248-0.164 1.788-0.489 0.538-0.326 0.966-0.766 1.28-1.318 0.326-0.552 0.489-1.167 0.489-1.845 0-0.015 0-0.034 0-0.052 0-0.668-0.182-1.293-0.499-1.828l0.009 0.017c-0.311-0.547-0.744-0.992-1.264-1.309l-0.016-0.009c-0.5-0.307-1.106-0.49-1.754-0.49-0.012 0-0.024 0-0.036 0h-4.328v7.322zM123.364 22.908v-11.859h4.593v10.654c0 0.74 0.183 1.417 0.546 2.033 0.365 0.602 0.847 1.086 1.449 1.449 0.616 0.352 1.288 0.527 2.014 0.527 0.753 0 1.431-0.175 2.033-0.527 0.602-0.363 1.086-0.847 1.449-1.449 0.365-0.616 0.546-1.293 0.546-2.033v-10.654h4.593l0.019 18.824h-4.593l-0.019-1.713c-0.646 0.668-1.414 1.213-2.269 1.6l-0.047 0.019c-0.89 0.39-1.845 0.584-2.861 0.584-0.023 0-0.049 0-0.076 0-1.353 0-2.62-0.371-3.703-1.016l0.033 0.018c-1.129-0.678-2.033-1.576-2.711-2.692-0.627-1.054-0.998-2.323-0.998-3.679 0-0.030 0-0.060 0.001-0.090l-0 0.005zM144.486 29.873v-28.235h4.593v28.235h-4.593zM159.157 30.212c-1.038-0.067-2.006-0.275-2.915-0.607l0.072 0.023c-0.924-0.345-1.721-0.81-2.424-1.386l0.015 0.012c-0.68-0.555-1.227-1.247-1.604-2.035l-0.015-0.035 3.878-1.656c0.151 0.25 0.395 0.521 0.734 0.809 0.339 0.277 0.74 0.508 1.205 0.696 0.476 0.188 0.998 0.282 1.562 0.282 0.476 0 0.928-0.062 1.355-0.188 0.439-0.137 0.791-0.344 1.054-0.621 0.257-0.262 0.415-0.621 0.415-1.017 0-0.020-0-0.039-0.001-0.059l0 0.003c0-0.465-0.164-0.823-0.489-1.073-0.337-0.272-0.742-0.475-1.184-0.579l-0.020-0.004c-0.478-0.137-0.941-0.264-1.393-0.376-1.256-0.25-2.372-0.634-3.412-1.146l0.080 0.036c-0.98-0.473-1.803-1.127-2.456-1.926l-0.010-0.013c-0.616-0.804-0.922-1.769-0.922-2.899 0-1.242 0.326-2.315 0.979-3.219 0.664-0.904 1.525-1.6 2.579-2.089 0.993-0.464 2.157-0.734 3.383-0.734 0.022 0 0.043 0 0.065 0l-0.003-0c1.493 0 2.861 0.314 4.104 0.941 1.254 0.616 2.246 1.487 2.974 2.616l-3.633 2.146c-0.197-0.325-0.442-0.599-0.728-0.823l-0.007-0.005c-0.307-0.258-0.662-0.473-1.046-0.63l-0.027-0.010c-0.37-0.167-0.8-0.275-1.251-0.301l-0.010-0c-0.086-0.005-0.187-0.008-0.288-0.008-0.446 0-0.879 0.058-1.291 0.167l0.035-0.008c-0.465 0.126-0.841 0.339-1.129 0.64-0.277 0.301-0.414 0.702-0.414 1.205 0 0.476 0.188 0.834 0.565 1.073 0.376 0.226 0.828 0.401 1.355 0.527 0.538 0.126 1.054 0.264 1.544 0.414 1.103 0.363 2.138 0.809 3.106 1.336 0.979 0.527 1.762 1.173 2.353 1.939 0.589 0.766 0.872 1.681 0.847 2.748 0 1.218-0.365 2.283-1.092 3.2-0.728 0.904-1.67 1.594-2.824 2.071-0.884 0.376-1.913 0.594-2.993 0.594-0.239 0-0.475-0.011-0.708-0.032l0.030 0.002zM177.952 30.362c-1.732 0-3.313-0.446-4.744-1.336-2.823-1.794-4.669-4.905-4.669-8.447 0-0.048 0-0.096 0.001-0.144l-0 0.007c0-1.368 0.245-2.648 0.734-3.84 0.489-1.205 1.16-2.259 2.014-3.162 0.836-0.888 1.836-1.61 2.953-2.122l0.059-0.024c1.058-0.488 2.297-0.772 3.601-0.772 0.018 0 0.035 0 0.053 0h-0.003c0.030-0 0.066-0.001 0.101-0.001 1.433 0 2.785 0.348 3.975 0.964l-0.048-0.023c1.245 0.627 2.288 1.483 3.11 2.522l0.015 0.019c0.827 1.042 1.467 2.274 1.846 3.616l0.018 0.074c0.388 1.38 0.476 2.824 0.264 4.329h-13.76c0.175 0.702 0.463 1.336 0.866 1.901 0.401 0.552 0.909 0.998 1.525 1.336 0.614 0.326 1.31 0.495 2.089 0.508 0.802 0.013 1.53-0.175 2.184-0.565 0.664-0.401 1.216-0.941 1.656-1.619l4.687 1.092c-0.777 1.682-1.945 3.068-3.393 4.082l-0.032 0.021c-1.519 1.054-3.219 1.581-5.101 1.581zM173.321 18.579h9.261c-0.139-0.753-0.433-1.431-0.885-2.033-0.432-0.604-0.979-1.098-1.613-1.455l-0.025-0.013c-0.6-0.343-1.319-0.546-2.086-0.546-0.008 0-0.016 0-0.024 0h0.001c-0.753 0-1.449 0.183-2.089 0.546-0.64 0.352-1.186 0.834-1.638 1.449-0.44 0.602-0.742 1.286-0.904 2.052z"></path>
</symbol>
        <symbol id="icon-dumbbell-logo" viewBox="0 0 83 32">
            <path
                d="M80.941 13.715c1.040 0 1.882 0.843 1.882 1.882v0 0.806c0 1.040-0.843 1.882-1.882 1.882v0h-2.152c-1.040 0-1.882 0.843-1.882 1.882v0 5.378c0 1.040-0.843 1.882-1.882 1.882v0h-2.152c-1.040 0-1.882 0.843-1.882 1.882v0 0.808c0 1.040-0.843 1.882-1.882 1.882v0h-5.109c-1.040 0-1.882-0.843-1.882-1.882v0-9.95c0-1.040-0.843-1.882-1.882-1.882v0h-37.647c-1.040 0-1.882 0.843-1.882 1.882v0 9.95c0 1.040-0.843 1.882-1.882 1.882v0h-5.109c-1.040 0-1.882-0.843-1.882-1.882v0-0.808c0-1.040-0.843-1.882-1.882-1.882v0h-2.152c-1.040 0-1.882-0.843-1.882-1.882v0-5.378c0-1.040-0.843-1.882-1.882-1.882v0h-2.152c-1.040 0-1.882-0.843-1.882-1.882v0-0.806c0-1.040 0.843-1.882 1.882-1.882v0h2.152c1.040 0 1.882-0.843 1.882-1.882v0-5.378c0-1.040 0.843-1.882 1.882-1.882v0h2.152c1.040 0 1.882-0.843 1.882-1.882v0-0.808c0-1.040 0.843-1.882 1.882-1.882v0h5.109c1.040 0 1.882 0.843 1.882 1.882v0 9.95c0 1.040 0.843 1.882 1.882 1.882v0h37.647c1.040 0 1.882-0.843 1.882-1.882v0-9.95c0-1.040 0.843-1.882 1.882-1.882v0h5.109c1.040 0 1.882 0.843 1.882 1.882v0 0.808c0 1.040 0.843 1.882 1.882 1.882v0h2.152c1.040 0 1.882 0.843 1.882 1.882v0 5.378c0 1.040 0.843 1.882 1.882 1.882v0h2.152z">
            </path>
        </symbol>
        <symbol id="icon-eye-off" viewBox="0 0 32 32">
            <path fill="none" stroke="#EFEDE8" stroke-linejoin="round" stroke-linecap="round" stroke-miterlimit="4"
                stroke-width="2.88"
                d="M23.92 23.92c-2.175 1.672-4.923 2.696-7.908 2.747l-0.012 0c-9.333 0-14.667-10.667-14.667-10.667 1.713-3.152 3.978-5.791 6.689-7.877l0.058-0.043M13.2 5.653c0.833-0.203 1.788-0.32 2.771-0.32 0.010 0 0.020 0 0.030 0h-0.002c9.333 0 14.667 10.667 14.667 10.667-0.872 1.615-1.827 3.008-2.91 4.289l0.030-0.036M18.827 18.827c-0.731 0.774-1.764 1.256-2.91 1.256-2.209 0-4-1.791-4-4 0-1.146 0.482-2.179 1.254-2.909l0.002-0.002M1.333 1.333l29.334 29.334">
            </path>
        </symbol>
        <symbol id="icon-eye" viewBox="0 0 32 32">
            <path fill="none" stroke="#EFEDE8" stroke-linejoin="round" stroke-linecap="round" stroke-miterlimit="4"
                stroke-width="2.88"
                d="M1.333 16s5.334-10.667 14.667-10.667 14.667 10.667 14.667 10.667-5.334 10.667-14.667 10.667-14.667-10.667-14.667-10.667z">
            </path>
            <path fill="none" stroke="#EFEDE8" stroke-linejoin="round" stroke-linecap="round" stroke-miterlimit="4"
                stroke-width="2.88" d="M16 20c2.209 0 4-1.791 4-4s-1.791-4-4-4v0c-2.209 0-4 1.791-4 4s1.791 4 4 4v0z">
            </path>
        </symbol>
        <symbol id="icon-dumbbell" viewBox="0 0 32 32">
            <path
                d="M5.2 8h-2.4c-0.001 0-0.002 0-0.003 0-0.661 0-1.197 0.536-1.197 1.197 0 0.001 0 0.002 0 0.003v-0 5.2h-1.2c-0.221 0-0.4 0.179-0.4 0.4v0 2.4c0 0.219 0.181 0.4 0.4 0.4h1.2v5.2c0 0.666 0.534 1.2 1.2 1.2h2.4c0.666 0 1.2-0.534 1.2-1.2v-13.6c0-0.001 0-0.002 0-0.003 0-0.661-0.536-1.197-1.197-1.197-0.001 0-0.002 0-0.003 0h0zM31.6 14.4h-1.2v-5.2c0-0.001 0-0.002 0-0.003 0-0.661-0.536-1.197-1.197-1.197-0.001 0-0.002 0-0.003 0h-2.4c-0.001 0-0.002 0-0.003 0-0.661 0-1.197 0.536-1.197 1.197 0 0.001 0 0.002 0 0.003v-0 13.6c0 0.666 0.534 1.2 1.2 1.2h2.4c0.666 0 1.2-0.534 1.2-1.2v-5.2h1.2c0.221 0 0.4-0.179 0.4-0.4v0-2.4c0-0.221-0.179-0.4-0.4-0.4v0zM22.8 4.8h-2.4c-0.001 0-0.002 0-0.003 0-0.661 0-1.197 0.536-1.197 1.197 0 0.001 0 0.002 0 0.003v-0 8.4h-6.4v-8.4c0-0.001 0-0.002 0-0.003 0-0.661-0.536-1.197-1.197-1.197-0.001 0-0.002 0-0.003 0h-2.4c-0.001 0-0.002 0-0.003 0-0.661 0-1.197 0.536-1.197 1.197 0 0.001 0 0.002 0 0.003v-0 20c0 0.666 0.534 1.2 1.2 1.2h2.4c0.666 0 1.2-0.534 1.2-1.2v-8.4h6.4v8.4c0 0.666 0.534 1.2 1.2 1.2h2.4c0.666 0 1.2-0.534 1.2-1.2v-20c0-0.001 0-0.002 0-0.003 0-0.661-0.536-1.197-1.197-1.197-0.001 0-0.002 0-0.003 0h0z">
            </path>
        </symbol>
        <symbol id="icon-apple" viewBox="0 0 32 32">
            <path
                d="M19.454 4.758c0.32-0.109 0.546-0.407 0.546-0.758 0-0.442-0.358-0.8-0.8-0.8-0.091 0-0.178 0.015-0.259 0.043l0.006-0.002c-1.501 0.499-2.435 1.731-2.986 3.051-0.054 0.121-0.123 0.301-0.185 0.483l-0.018 0.059c-0.719-1.345-1.864-2.384-3.253-2.948l-0.043-0.015c-0.699-0.286-1.51-0.452-2.36-0.452-0.065 0-0.13 0.001-0.195 0.003l0.009-0c-0.928 0.026-1.669 0.768-1.694 1.694-0.002 0.055-0.003 0.12-0.003 0.185 0 1.765 0.716 3.363 1.875 4.519l0 0 0.050 0.048c-2.738 0.608-4.793 2.908-5.026 5.724l-0.002 0.023-0.010 0.118c-0.028 0.325-0.043 0.704-0.043 1.087 0 2.387 0.615 4.63 1.695 6.58l-0.035-0.070 0.576 1.053c0.016 0.027 0.032 0.054 0.051 0.080l1.6 2.243c0.789 1.095 2.061 1.799 3.496 1.799 1.186 0 2.26-0.481 3.038-1.258l-0 0c0.132-0.132 0.314-0.214 0.516-0.214s0.384 0.082 0.516 0.214l0 0c0.777 0.778 1.852 1.259 3.038 1.259 1.436 0 2.707-0.705 3.487-1.787l0.009-0.013 1.6-2.242c0.017-0.023 0.034-0.050 0.049-0.078l0.002-0.004 0.574-1.053c1.045-1.88 1.659-4.123 1.659-6.51 0-0.382-0.016-0.761-0.047-1.136l0.003 0.049-0.008-0.118c-0.271-3.308-3.022-5.889-6.377-5.889-0.373 0-0.738 0.032-1.093 0.093l0.038-0.005-2.651 0.442c0.016-1.090 0.208-2.315 0.638-3.349 0.448-1.080 1.114-1.848 2.013-2.149h0.002zM11.054 14.358c-0.503 0.162-0.907 0.508-1.142 0.957l-0.005 0.011c-0.296 0.557-0.499 1.475-0.312 2.974 0.003 0.024 0.004 0.052 0.004 0.080 0 0.442-0.358 0.8-0.8 0.8-0.4 0-0.732-0.294-0.791-0.678l-0.001-0.004c-0.213-1.702-0.016-2.984 0.488-3.926 0.512-0.96 1.291-1.478 2.053-1.733 0.075-0.026 0.162-0.041 0.253-0.041 0.442 0 0.8 0.358 0.8 0.8 0 0.351-0.227 0.65-0.542 0.758l-0.006 0.002z">
            </path>
        </symbol>
        <symbol id="icon-bubble" viewBox="0 0 32 32">
            <path
                d="M20.794 16.346c3.778 0 6.84-3.062 6.84-6.84s-3.062-6.84-6.84-6.84v0c-3.778 0-6.84 3.062-6.84 6.84s3.062 6.84 6.84 6.84v0zM8.475 25.92c2.268 0 4.107-1.839 4.107-4.107s-1.839-4.107-4.107-4.107v0c-2.233 0.045-4.026 1.867-4.026 4.106s1.793 4.061 4.022 4.106l0.004 0zM22.15 29.333c1.885 0 3.414-1.528 3.414-3.414s-1.528-3.414-3.414-3.414v0c-1.885 0-3.414 1.528-3.414 3.414s1.528 3.414 3.414 3.414v0z">
            </path>
        </symbol>
        <symbol id="icon-calendar" viewBox="0 0 32 32">
            <path stroke-linejoin="round" fill="none" stroke-linecap="round" stroke-miterlimit="4" stroke-width="2.6667"
                d="M25.333 5.333h-18.667c-1.473 0-2.667 1.194-2.667 2.667v0 18.667c0 1.473 1.194 2.667 2.667 2.667v0h18.667c1.473 0 2.667-1.194 2.667-2.667v0-18.667c0-1.473-1.194-2.667-2.667-2.667v0zM21.333 2.667v5.333M10.667 2.667v5.333M4 13.333h24">
            </path>
        </symbol>
        <symbol id="icon-calories" viewBox="0 0 32 32">
            <path
                d="M16 22.291c-0.944 0.72-2.896 2.501-2.896 4.925 0 1.602 1.299 2.904 2.896 2.904s2.896-1.302 2.896-2.904c0-2.296-1.952-4.16-2.896-4.925z">
            </path>
            <path
                d="M22.789 5.57c-0.172-0.194-0.422-0.316-0.701-0.316-0.247 0-0.472 0.096-0.639 0.252l0.001-0-4.413 4.117v-8.624c0-0.72-0.869-1.259-1.52-0.864-0.125 0.074-3.058 1.862-6.021 5.114-3.6 3.952-6.054 8.765-6.054 14.163 0.002 6.942 5.634 12.589 12.558 12.589-2.637-0.007-4.771-2.146-4.771-4.784 0 0 0 0 0-0v0c0-4.261 4.138-6.784 4.314-6.891 0.137-0.083 0.303-0.132 0.48-0.132 0.192 0 0.37 0.058 0.519 0.157l-0.003-0.002c0.173 0.114 4.234 2.838 4.234 6.869 0 0 0 0 0 0 0 2.638-2.135 4.777-4.77 4.784h-0.001c6.923 0 12.557-5.648 12.557-12.587 0-5.242-2.312-9.938-5.768-13.843z">
            </path>
        </symbol>
        <symbol id="icon-check_mark" viewBox="0 0 33 32">
            <path
                d="M11.238 0.428l4.69 1.356c0.34 0.098 0.7 0.099 1.039 0.002l4.83-1.375c0.154-0.046 0.332-0.072 0.515-0.072 0.708 0 1.325 0.391 1.646 0.969l0.005 0.010 2.506 4.577c0.168 0.307 0.419 0.561 0.724 0.734l3.986 2.258c0.574 0.33 0.954 0.939 0.954 1.638 0 0.2-0.031 0.393-0.089 0.574l0.004-0.013-1.38 4.428c-0.054 0.168-0.085 0.361-0.085 0.561 0 0.198 0.031 0.389 0.087 0.568l-0.004-0.013 1.394 4.521c0.053 0.166 0.084 0.357 0.084 0.555 0 0.69-0.371 1.293-0.924 1.62l-0.009 0.005-4.443 2.598c-0.303 0.177-0.55 0.435-0.715 0.746l-2.113 4.004c-0.322 0.601-0.946 1.003-1.664 1.003-0.171 0-0.336-0.023-0.494-0.065l0.013 0.003-4.864-1.284c-0.144-0.040-0.309-0.062-0.48-0.062-0.173 0-0.341 0.023-0.501 0.067l0.013-0.003-4.713 1.264c-0.146 0.041-0.315 0.064-0.488 0.064-0.735 0-1.372-0.422-1.682-1.037l-0.005-0.011-2.106-4.256c-0.181-0.36-0.461-0.646-0.806-0.829l-0.010-0.005-4.305-2.247c-0.606-0.321-1.012-0.947-1.012-1.669 0-0.178 0.025-0.351 0.071-0.514l-0.003 0.013 1.256-4.548c0.089-0.322 0.090-0.662 0.004-0.985l-1.287-4.841c-0.040-0.145-0.063-0.312-0.063-0.484 0-0.704 0.386-1.317 0.958-1.64l0.009-0.005 4.422-2.46c0.321-0.178 0.584-0.447 0.754-0.774l2.090-4.006c0.321-0.606 0.947-1.012 1.669-1.012 0.186 0 0.366 0.027 0.536 0.077l-0.013-0.003z">
            </path>
            <path stroke="#EFEDE8" stroke-linejoin="round" stroke-linecap="round" stroke-miterlimit="4" stroke-width="2"
                d="M16.5 10.75v10.5M11.25 16h10.5"></path>
        </symbol>
        <symbol id="icon-exclamation-mark" viewBox="0 0 32 32">
            <path stroke="none"
                d="M32 16c0 8.837-7.163 16-16 16s-16-7.163-16-16c0-8.837 7.163-16 16-16s16 7.163 16 16z"></path>
            <path stroke="#EFEDE8" stroke-linejoin="round" stroke-linecap="round" stroke-miterlimit="4"
                stroke-width="2.6667" d="M16 25.333v0.013M16 20v-13.333"></path>
        </symbol>
        <symbol id="icon-fluent_food" viewBox="0 0 32 32">
            <path
                d="M24 4c0.682 0 1.244 0.511 1.324 1.171l0.001 0.006 0.008 0.155v21.334c-0.015 0.725-0.607 1.307-1.334 1.307-0.673 0-1.229-0.498-1.321-1.145l-0.001-0.007-0.010-0.155v-6.667h-1.334c-0.681-0-1.243-0.512-1.323-1.171l-0.001-0.006-0.010-0.155v-8c0-2.947 2-6.667 4-6.667zM16 4c0.682 0 1.244 0.511 1.324 1.171l0.001 0.006 0.008 0.155v6.667c-0.001 2.472-1.682 4.551-3.963 5.156l-0.037 0.008v9.502c-0.002 0.734-0.598 1.328-1.333 1.328-0.68 0-1.241-0.509-1.323-1.167l-0.001-0.006-0.010-0.155v-9.502c-2.23-0.59-3.869-2.532-3.995-4.876l-0.001-0.013-0.005-0.275v-6.667c0.003-0.734 0.598-1.328 1.333-1.328 0.68 0 1.241 0.509 1.323 1.167l0.001 0.006 0.010 0.155v6.667c0.001 0.982 0.531 1.839 1.322 2.302l0.013 0.007v-8.976c0.002-0.734 0.598-1.328 1.333-1.328 0.68 0 1.241 0.509 1.323 1.167l0.001 0.006 0.010 0.155 0.002 8.976c0.738-0.432 1.245-1.191 1.322-2.073l0.001-0.010 0.010-0.226v-6.667c0-0.736 0.597-1.333 1.333-1.333v0z">
            </path>
        </symbol>
        <symbol id="icon-user" viewBox="0 0 32 32">
            <path fill="rgba(239, 237, 232, 0.3)"
                d="M16 5.333c2.946 0 5.333 2.388 5.333 5.333s-2.388 5.333-5.333 5.333v0c-2.946 0-5.333-2.388-5.333-5.333s2.388-5.333 5.333-5.333v0zM16 26.667s10.667 0 10.667-2.667c0-3.2-5.2-6.667-10.667-6.667s-10.667 3.467-10.667 6.667c0 2.667 10.667 2.667 10.667 2.667z">
            </path>
        </symbol>
        <symbol id="icon-logout" viewBox="0 0 32 32">
            <path stroke-linejoin="round" stroke-linecap="round" stroke-miterlimit="4" stroke-width="2.4"
                d="M12 4h-1.6c-2.24 0-3.36 0-4.216 0.435-0.756 0.391-1.358 0.992-1.738 1.727l-0.011 0.022c-0.435 0.856-0.435 1.976-0.435 4.216v11.2c0 2.24 0 3.36 0.435 4.216 0.391 0.756 0.992 1.357 1.726 1.737l0.022 0.011c0.856 0.437 1.976 0.437 4.216 0.437h1.6M21.333 22.667l6.667-6.667M28 16l-6.667-6.667M28 16h-16">
            </path>
        </symbol>
        <symbol id="icon-play" viewBox="0 0 32 32">
            <path stroke="none" stroke-linejoin="round" stroke-linecap="round" stroke-miterlimit="4" stroke-width="1"
                d="M4 10.4c0-2.24 0-3.36 0.436-4.216 0.391-0.756 0.992-1.357 1.726-1.737l0.022-0.011c0.856-0.436 1.976-0.436 4.216-0.436h11.2c2.24 0 3.36 0 4.216 0.436 0.756 0.391 1.357 0.992 1.738 1.726l0.011 0.022c0.436 0.856 0.436 1.976 0.436 4.216v11.2c0 2.24 0 3.36-0.436 4.216-0.391 0.756-0.992 1.357-1.726 1.738l-0.022 0.011c-0.856 0.436-1.976 0.436-4.216 0.436h-11.2c-2.24 0-3.36 0-4.216-0.436-0.756-0.391-1.357-0.992-1.737-1.726l-0.011-0.022c-0.436-0.856-0.436-1.976-0.436-4.216v-11.2z">
            </path>
            <path stroke="#EFEDE8" fill="#EFEDE8" stroke-linejoin="round" stroke-linecap="round" stroke-miterlimit="4"
                stroke-width="1.3" d="M11.917 10.75l8.166 5.25-8.166 5.25v-10.5z"></path>
        </symbol>
        <symbol id="icon-pause" viewBox="0 0 32 32">
            <path stroke="none" stroke-linejoin="round" stroke-linecap="round" stroke-miterlimit="4" stroke-width="1"
                d="M4 10.4c0-2.24 0-3.36 0.436-4.216 0.391-0.756 0.992-1.357 1.726-1.737l0.022-0.011c0.856-0.436 1.976-0.436 4.216-0.436h11.2c2.24 0 3.36 0 4.216 0.436 0.756 0.391 1.357 0.992 1.738 1.726l0.011 0.022c0.436 0.856 0.436 1.976 0.436 4.216v11.2c0 2.24 0 3.36-0.436 4.216-0.391 0.756-0.992 1.357-1.726 1.738l-0.022 0.011c-0.856 0.436-1.976 0.436-4.216 0.436h-11.2c-2.24 0-3.36 0-4.216-0.436-0.756-0.391-1.357-0.992-1.737-1.726l-0.011-0.022c-0.436-0.856-0.436-1.976-0.436-4.216v-11.2z">
            </path>
            <path stroke="#EFEDE8" stroke-linejoin="round" stroke-linecap="round" stroke-miterlimit="4"
                stroke-width="1.3" d="M12.666 20v-8M19.333 20v-8"></path>
        </symbol>
        <symbol id="icon-running" viewBox="0 0 32 32">
            <path
                d="M29.648 9.451c-0.219-0.26-0.545-0.424-0.909-0.424-0.29 0-0.556 0.104-0.762 0.277l0.002-0.002-3.28 2.757-1.51-3.739c-0.056-0.14-0.134-0.261-0.229-0.364l0.001 0.001c-0.321-0.716-0.875-1.281-1.563-1.608l-0.019-0.008c-0.32-0.146-0.651-0.224-0.982-0.262-0.072-0.038-0.139-0.088-0.222-0.114l-5.776-1.61c-0.093-0.026-0.199-0.041-0.31-0.041-0.223 0-0.432 0.062-0.611 0.169l0.005-0.003c-0.33 0.108-0.59 0.352-0.717 0.664l-0.003 0.008-2.174 5.592c-0.050 0.127-0.079 0.273-0.079 0.427 0 0.501 0.31 0.929 0.748 1.103l0.008 0.003c0.126 0.050 0.272 0.079 0.425 0.079 0.5 0 0.928-0.31 1.103-0.748l0.003-0.008 1.837-4.723 2.63 0.731c-0.064 0.104-0.133 0.202-0.186 0.312l-3.371 7.312c-0.048 0.107-0.075 0.216-0.11 0.326l-4.098 6.87-6.859 2.294c-0.42 0.323-0.687 0.826-0.687 1.391 0 0.968 0.784 1.752 1.752 1.752 0.381 0 0.733-0.122 1.021-0.328l-0.005 0.004 7.019-2.416c0.216-0.157 0.371-0.362 0.49-0.581 0.088-0.094 0.189-0.168 0.256-0.285l2.443-4.096 4.336 3.696-4.64 5.229c-0.273 0.307-0.439 0.714-0.439 1.16 0 0.967 0.784 1.751 1.751 1.751 0.521 0 0.99-0.228 1.31-0.589l0.002-0.002 5.79-6.523c0.179-0.202 0.288-0.432 0.36-0.675 0.043-0.133 0.043-0.269 0.053-0.406 0-0.069 0.027-0.131 0.021-0.195-0.009-0.509-0.239-0.963-0.598-1.272l-0.002-0.002-3.992-3.403c0.288-0.274 0.533-0.6 0.709-0.982l2.586-5.6 0.829 2.208c0.031 0.211 0.116 0.398 0.242 0.551l-0.002-0.002c0.121 0.138 0.273 0.247 0.445 0.314l0.008 0.003c0.018 0.008 0.038 0.010 0.059 0.016 0.096 0.040 0.208 0.069 0.325 0.080l0.005 0c0.024 0.002 0.052 0.003 0.081 0.003 0.116 0 0.227-0.017 0.332-0.050l-0.008 0.002h0.005c0.037-0.010 0.074-0.003 0.11-0.019 0.186-0.076 0.343-0.192 0.464-0.337l0.002-0.002 4.71-3.997c0.501-0.422 0.288-1.168-0.133-1.667zM23.69 6.602c1.823 0 3.301-1.478 3.301-3.301s-1.478-3.301-3.301-3.301v0c-1.823 0-3.301 1.478-3.301 3.301s1.478 3.301 3.301 3.301v0z">
            </path>
        </symbol>
        <symbol id="icon-settings" viewBox="0 0 32 32">
            <path fill="none" stroke="rgba(239, 237, 232, 0.3)" stroke-linejoin="round" stroke-linecap="round"
                stroke-miterlimit="4" stroke-width="2.2857"
                d="M16 20c2.209 0 4-1.791 4-4s-1.791-4-4-4v0c-2.209 0-4 1.791-4 4s1.791 4 4 4v0z"></path>
            <path fill="none" stroke="rgba(239, 237, 232, 0.3)" stroke-linejoin="round" stroke-linecap="round"
                stroke-miterlimit="4" stroke-width="2.2857"
                d="M24.971 19.637c-0.108 0.238-0.17 0.515-0.17 0.807 0 0.544 0.218 1.038 0.571 1.399l-0-0 0.072 0.073c0.439 0.439 0.711 1.045 0.711 1.715s-0.272 1.276-0.711 1.715l-0 0c-0.439 0.439-1.045 0.711-1.715 0.711s-1.277-0.272-1.715-0.711l-0.072-0.072c-0.36-0.353-0.854-0.57-1.398-0.57-0.292 0-0.57 0.063-0.82 0.175l0.013-0.005c-0.716 0.313-1.209 1.013-1.213 1.829v0.206c0 1.339-1.086 2.425-2.425 2.425s-2.425-1.086-2.425-2.425v0-0.109c-0.020-0.838-0.553-1.546-1.295-1.825l-0.014-0.005c-0.238-0.108-0.515-0.17-0.807-0.17-0.544 0-1.038 0.218-1.399 0.571l0-0-0.073 0.072c-0.439 0.439-1.045 0.711-1.715 0.711-1.34 0-2.426-1.086-2.426-2.426 0-0.67 0.271-1.276 0.71-1.715l0.073-0.073c0.353-0.36 0.57-0.854 0.57-1.398 0-0.292-0.063-0.57-0.175-0.82l0.005 0.013c-0.313-0.716-1.013-1.208-1.829-1.211h-0.206c-1.339 0-2.425-1.086-2.425-2.425s1.086-2.425 2.425-2.425v0h0.109c0.838-0.021 1.546-0.553 1.825-1.296l0.005-0.014c0.108-0.238 0.17-0.515 0.17-0.807 0-0.544-0.218-1.038-0.571-1.399l0 0-0.072-0.073c-0.439-0.439-0.71-1.045-0.71-1.715 0-1.339 1.086-2.425 2.425-2.425 0.67 0 1.276 0.271 1.715 0.71v0l0.073 0.072c0.36 0.353 0.854 0.57 1.398 0.57 0.292 0 0.57-0.063 0.82-0.175l-0.013 0.005h0.097c0.716-0.313 1.208-1.013 1.211-1.829v-0.206c0-1.339 1.086-2.425 2.425-2.425s2.425 1.086 2.425 2.425v0 0.109c0.003 0.817 0.495 1.518 1.199 1.826l0.013 0.005c0.238 0.108 0.515 0.17 0.807 0.17 0.544 0 1.038-0.218 1.399-0.571l0.073-0.073c0.439-0.439 1.045-0.711 1.715-0.711 1.34 0 2.426 1.086 2.426 2.426 0 0.67-0.271 1.276-0.71 1.715l-0.073 0.073c-0.353 0.36-0.57 0.854-0.57 1.398 0 0.292 0.063 0.57 0.175 0.82l-0.005-0.013v0.097c0.313 0.716 1.014 1.208 1.83 1.211h0.206c1.339 0 2.425 1.086 2.425 2.425s-1.086 2.425-2.425 2.425v0h-0.109c-0.817 0.003-1.518 0.495-1.826 1.199l-0.005 0.013z">
            </path>
        </symbol>
        <symbol id="icon-successes" viewBox="0 0 32 32">
            <path fill="#3CBF61" stroke="none"
                d="M16 29.334c-7.364 0-13.333-5.969-13.333-13.333s5.969-13.333 13.333-13.333v0c7.364 0 13.333 5.969 13.333 13.333s-5.969 13.333-13.333 13.333v0zM14.46 21.98l9.426-9.428-1.886-1.886-7.54 7.544-3.776-3.772-1.884 1.884 5.656 5.658z">
            </path>
        </symbol>
        <symbol id="icon-error" viewBox="0 0 32 32">
            <path fill="#D80027" stroke="none"
                d="M16 29.334c-7.364 0-13.333-5.969-13.333-13.333s5.969-13.333 13.333-13.333v0c7.364 0 13.333 5.969 13.333 13.333s-5.969 13.333-13.333 13.333v0zM14.46 21.98l9.426-9.428-1.886-1.886-7.54 7.544-3.776-3.772-1.884 1.884 5.656 5.658z">
            </path>
        </symbol>
        <symbol id="icon-start" viewBox="0 0 32 32">
            <path stroke-linejoin="round" stroke-linecap="round" stroke-miterlimit="4" stroke-width="2.6"
                d="M15 28l13-13M28 15l-13-13M28 15h-26"></path>
        </symbol>
        <symbol id="icon-search" viewBox="0 0 32 32">
            <path stroke-linejoin="round" stroke-linecap="round" fill="transparent" stroke-miterlimit="4"
                stroke-width="2.6667"
                d="M14.667 25.333c5.891 0 10.667-4.776 10.667-10.667s-4.776-10.667-10.667-10.667v0c-5.891 0-10.667 4.776-10.667 10.667s4.776 10.667 10.667 10.667v0zM28 28l-5.801-5.799">
            </path>
        </symbol>
        <symbol id="icon-x" viewBox="0 0 32 32">
            <path stroke-linejoin="round" stroke-linecap="round" stroke-miterlimit="4" stroke-width="3.5556"
                d="M24 8l-16 16M8 8l16 16"></path>
        </symbol>
        <symbol id="icon-back" viewBox="0 0 32 32">
            <path stroke-linejoin="round" stroke-linecap="round" stroke-miterlimit="4" stroke-width="2.6"
                d="M17 28l-13-13M4 15l13-13M4 15h26"></path>
        </symbol>
        <symbol id="icon-trash" viewBox="0 0 32 32">
            <path fill="none" stroke="#EF8964" stroke-linejoin="round" stroke-linecap="round" stroke-miterlimit="4"
                stroke-width="2.4"
                d="M12 4h8M13.333 14v6.667M18.667 14v6.667M4 8h24M25.333 8l-0.934 14.026c-0.141 2.104-0.211 3.157-0.666 3.955-0.405 0.703-0.997 1.258-1.708 1.609l-0.023 0.010c-0.826 0.4-1.88 0.4-3.989 0.4h-4.026c-2.109 0-3.163 0-3.989-0.4-0.734-0.361-1.326-0.917-1.721-1.6l-0.010-0.019c-0.454-0.8-0.525-1.851-0.666-3.955l-0.934-14.026">
            </path>
        </symbol>
        <symbol id="icon-running-exercises-page" viewBox="0 0 32 32">
            <path fill="#efa082" style="fill: var(--color1, #efa082)"
                d="M32 16c0 8.837-7.163 16-16 16s-16-7.163-16-16c0-8.837 7.163-16 16-16s16 7.163 16 16z"></path>
            <path fill="#efede8" style="fill: var(--color2, #efede8)"
                d="M25.098 11.634c-0.279-0.334-0.777-0.378-1.111-0.099l-2.188 1.838-1.006-2.493c-0.036-0.094-0.090-0.172-0.153-0.241-0.206-0.457-0.563-0.85-1.055-1.078-0.214-0.097-0.434-0.149-0.655-0.174-0.049-0.025-0.093-0.059-0.148-0.076l-3.85-1.073c-0.216-0.059-0.433-0.021-0.611 0.083-0.211 0.072-0.393 0.225-0.479 0.448l-1.45 3.728c-0.157 0.405 0.044 0.863 0.451 1.022 0.404 0.157 0.863-0.045 1.021-0.452l1.225-3.148 1.754 0.488c-0.043 0.069-0.089 0.134-0.124 0.208l-2.248 4.873c-0.032 0.072-0.050 0.144-0.073 0.218l-2.732 4.58-4.572 1.529c-0.518 0.387-0.627 1.116-0.245 1.633 0.385 0.519 1.116 0.628 1.632 0.246l4.679-1.612c0.143-0.104 0.247-0.24 0.326-0.387 0.059-0.062 0.126-0.112 0.171-0.189l1.629-2.731 2.891 2.464-3.094 3.487c-0.426 0.481-0.383 1.221 0.099 1.646 0.482 0.429 1.22 0.383 1.648-0.099l3.861-4.349c0.12-0.134 0.192-0.289 0.24-0.451 0.029-0.088 0.029-0.179 0.036-0.27 0-0.046 0.017-0.088 0.014-0.131-0.010-0.319-0.14-0.628-0.401-0.849l-2.661-2.269c0.192-0.183 0.355-0.4 0.473-0.655l1.724-3.733 0.552 1.471c0.023 0.131 0.067 0.259 0.159 0.366 0.083 0.099 0.189 0.165 0.303 0.211 0.012 0.006 0.025 0.007 0.039 0.010 0.072 0.025 0.144 0.050 0.219 0.053 0.089 0.008 0.179-0.003 0.27-0.029 0.002-0.001 0.003-0.001 0.003-0.001 0.024-0.006 0.049-0.001 0.073-0.012 0.128-0.048 0.226-0.131 0.311-0.226l3.14-2.665c0.334-0.281 0.193-0.777-0.088-1.111z">
            </path>
            <path fill="#efede8" style="fill: var(--color2, #efede8)"
                d="M21.128 9.735c1.215 0 2.201-0.985 2.201-2.201s-0.985-2.201-2.201-2.201c-1.215 0-2.201 0.985-2.201 2.201s0.985 2.201 2.201 2.201z">
            </path>
        </symbol>
        <symbol id="icon-close" viewBox="0 0 32 32">
            <path fill="none" stroke="#efede8" style="stroke: var(--color1, #efede8)" stroke-linejoin="round"
                stroke-linecap="round" stroke-miterlimit="4" stroke-width="2.9091" d="M24 8l-16 16"></path>
            <path fill="none" stroke="#efede8" style="stroke: var(--color1, #efede8)" stroke-linejoin="round"
                stroke-linecap="round" stroke-miterlimit="4" stroke-width="2.9091" d="M8 8l16 16"></path>
        </symbol>
<symbol id="icon-PowerPulse" viewBox="0 0 202 32">
<path fill="#efede8" style="fill: var(--color1, #efede8)" d="M0 30.266v-27.099h10.14c1.541 0 2.934 0.368 4.178 1.103 1.257 0.736 2.251 1.723 2.981 2.962s1.095 2.6 1.095 4.084c0 1.523-0.379 2.903-1.136 4.142-0.744 1.226-1.744 2.207-3.002 2.942-1.257 0.723-2.63 1.084-4.117 1.084h-5.192v10.782h-4.948zM4.948 14.761h4.665c0.703 0 1.345-0.168 1.927-0.503s1.041-0.787 1.379-1.355c0.352-0.568 0.527-1.2 0.527-1.897 0-0.71-0.176-1.349-0.527-1.916-0.338-0.568-0.798-1.019-1.379-1.355s-1.224-0.503-1.927-0.503h-4.665v7.53z"></path>
<path fill="#efede8" style="fill: var(--color1, #efede8)" d="M29.64 30.769c-1.866 0-3.569-0.458-5.111-1.374-1.528-0.916-2.751-2.142-3.671-3.678-0.906-1.549-1.359-3.258-1.359-5.13 0-1.419 0.264-2.742 0.791-3.968 0.527-1.239 1.251-2.323 2.17-3.252 0.933-0.942 2.015-1.678 3.245-2.207s2.542-0.794 3.934-0.794c1.866 0 3.563 0.458 5.090 1.374 1.541 0.916 2.765 2.149 3.671 3.697 0.919 1.549 1.379 3.265 1.379 5.149 0 1.407-0.264 2.723-0.791 3.949s-1.257 2.31-2.19 3.252c-0.919 0.929-1.994 1.658-3.225 2.187-1.217 0.529-2.528 0.794-3.935 0.794zM29.64 26.046c0.987 0 1.873-0.252 2.657-0.755s1.399-1.168 1.846-1.994c0.46-0.826 0.689-1.729 0.689-2.71 0-1.007-0.237-1.923-0.71-2.749-0.46-0.839-1.088-1.503-1.886-1.994-0.784-0.503-1.649-0.755-2.596-0.755-0.973 0-1.852 0.252-2.636 0.755s-1.406 1.174-1.866 2.013c-0.46 0.839-0.69 1.749-0.69 2.729 0 1.019 0.237 1.942 0.71 2.768s1.102 1.484 1.886 1.974c0.798 0.478 1.663 0.716 2.596 0.716z"></path>
<path fill="#efede8" style="fill: var(--color1, #efede8)" d="M52.452 30.266h-4.908l-6.774-19.357h4.847l4.401 12.524 4.381-12.524h4.888l4.381 12.524 4.401-12.524h4.847l-6.774 19.357h-4.908l-4.401-12.582-4.381 12.582z"></path>
<path fill="#efede8" style="fill: var(--color1, #efede8)" d="M84.064 30.769c-1.866 0-3.569-0.458-5.111-1.374-1.528-0.916-2.752-2.149-3.671-3.697-0.906-1.549-1.359-3.258-1.359-5.13 0-1.407 0.264-2.723 0.791-3.949 0.527-1.239 1.251-2.323 2.17-3.252 0.933-0.942 2.015-1.678 3.245-2.207s2.542-0.794 3.935-0.794c1.582 0 3.029 0.323 4.34 0.968 1.325 0.632 2.447 1.503 3.367 2.613s1.589 2.374 2.008 3.794c0.419 1.419 0.514 2.904 0.284 4.452h-14.825c0.189 0.723 0.5 1.374 0.933 1.955 0.433 0.568 0.98 1.026 1.643 1.374 0.662 0.335 1.413 0.51 2.251 0.523 0.865 0.013 1.649-0.181 2.353-0.581 0.717-0.413 1.311-0.968 1.785-1.665l5.050 1.123c-0.825 1.716-2.055 3.123-3.691 4.22-1.636 1.084-3.468 1.626-5.496 1.626zM79.075 18.652h9.978c-0.149-0.774-0.466-1.471-0.953-2.091-0.473-0.632-1.061-1.136-1.764-1.51s-1.46-0.561-2.272-0.561-1.562 0.187-2.251 0.561c-0.689 0.361-1.278 0.858-1.764 1.49-0.473 0.619-0.798 1.323-0.974 2.11z"></path>
<path fill="#efede8" style="fill: var(--color1, #efede8)" d="M97.383 30.266l-0.020-19.357h4.948l0.020 1.723c0.689-0.697 1.514-1.245 2.474-1.645 0.96-0.413 1.994-0.619 3.103-0.619 0.744 0 1.487 0.103 2.231 0.31l-1.947 4.762c-0.514-0.194-1.027-0.29-1.541-0.29-0.798 0-1.528 0.187-2.19 0.561-0.649 0.361-1.169 0.858-1.562 1.491-0.379 0.619-0.568 1.31-0.568 2.071v10.995h-4.948z"></path>
<path fill="#efede8" style="fill: var(--color1, #efede8)" d="M112.415 30.266v-27.099h10.14c1.541 0 2.934 0.368 4.178 1.103 1.257 0.736 2.251 1.723 2.981 2.962s1.095 2.6 1.095 4.084c0 1.523-0.379 2.903-1.136 4.142-0.744 1.226-1.744 2.207-3.002 2.942-1.257 0.723-2.63 1.084-4.117 1.084h-5.192v10.782h-4.948zM117.363 14.761h4.665c0.703 0 1.345-0.168 1.927-0.503s1.041-0.787 1.379-1.355c0.352-0.568 0.527-1.2 0.527-1.897 0-0.71-0.176-1.349-0.527-1.916-0.338-0.568-0.798-1.019-1.379-1.355s-1.224-0.503-1.927-0.503h-4.665v7.53z"></path>
<path fill="#efede8" style="fill: var(--color1, #efede8)" d="M132.914 23.104v-12.195h4.948v10.956c0 0.761 0.196 1.458 0.588 2.091 0.392 0.619 0.913 1.116 1.562 1.491 0.663 0.361 1.386 0.542 2.17 0.542 0.811 0 1.541-0.181 2.19-0.542 0.649-0.374 1.169-0.871 1.562-1.491 0.392-0.632 0.588-1.329 0.588-2.091v-10.956h4.948l0.020 19.357h-4.948l-0.020-1.761c-0.703 0.697-1.535 1.252-2.495 1.665-0.96 0.4-1.988 0.6-3.083 0.6-1.474 0-2.819-0.342-4.036-1.026-1.217-0.697-2.19-1.619-2.92-2.768-0.717-1.161-1.075-2.452-1.075-3.871z"></path>
<path fill="#efede8" style="fill: var(--color1, #efede8)" d="M155.669 30.266v-29.035h4.948v29.035h-4.948z"></path>
<path fill="#efede8" style="fill: var(--color1, #efede8)" d="M171.475 30.614c-1.055-0.064-2.075-0.265-3.062-0.6-0.973-0.348-1.839-0.819-2.596-1.413s-1.339-1.303-1.744-2.129l4.178-1.703c0.162 0.258 0.426 0.535 0.791 0.832 0.365 0.284 0.798 0.523 1.298 0.716 0.514 0.194 1.075 0.29 1.683 0.29 0.514 0 1-0.064 1.46-0.193 0.473-0.142 0.852-0.355 1.136-0.639 0.297-0.284 0.446-0.652 0.446-1.104 0-0.477-0.176-0.845-0.527-1.103-0.338-0.271-0.771-0.471-1.298-0.6-0.514-0.142-1.014-0.271-1.501-0.387-1.284-0.245-2.481-0.626-3.59-1.142-1.095-0.516-1.981-1.181-2.657-1.994-0.662-0.826-0.994-1.82-0.994-2.981 0-1.278 0.351-2.381 1.055-3.31 0.717-0.929 1.643-1.645 2.778-2.149 1.149-0.503 2.386-0.755 3.711-0.755 1.609 0 3.083 0.323 4.421 0.968 1.352 0.632 2.42 1.529 3.204 2.691l-3.914 2.207c-0.189-0.31-0.453-0.594-0.791-0.852-0.338-0.271-0.723-0.49-1.156-0.658-0.433-0.181-0.886-0.284-1.359-0.31-0.608-0.026-1.163 0.026-1.663 0.155s-0.906 0.348-1.217 0.658c-0.298 0.31-0.446 0.723-0.446 1.239 0 0.49 0.203 0.858 0.608 1.103 0.406 0.232 0.892 0.413 1.46 0.542 0.581 0.129 1.136 0.271 1.663 0.426 1.19 0.374 2.305 0.832 3.346 1.374 1.055 0.542 1.9 1.207 2.535 1.994s0.94 1.729 0.912 2.826c0 1.252-0.392 2.349-1.176 3.291-0.784 0.929-1.798 1.639-3.042 2.129-1.23 0.49-2.548 0.684-3.955 0.581z"></path>
<path fill="#efede8" style="fill: var(--color1, #efede8)" d="M191.726 30.769c-1.866 0-3.569-0.458-5.111-1.374-1.528-0.916-2.751-2.149-3.671-3.697-0.906-1.549-1.359-3.258-1.359-5.13 0-1.407 0.264-2.723 0.791-3.949 0.527-1.239 1.251-2.323 2.17-3.252 0.933-0.942 2.015-1.678 3.245-2.207s2.542-0.794 3.935-0.794c1.582 0 3.028 0.323 4.34 0.968 1.325 0.632 2.447 1.503 3.367 2.613s1.589 2.374 2.008 3.794c0.419 1.419 0.514 2.904 0.284 4.452h-14.825c0.189 0.723 0.5 1.374 0.933 1.955 0.433 0.568 0.98 1.026 1.643 1.374 0.662 0.335 1.413 0.51 2.251 0.523 0.865 0.013 1.649-0.181 2.352-0.581 0.717-0.413 1.311-0.968 1.785-1.665l5.050 1.123c-0.825 1.716-2.055 3.123-3.691 4.22-1.636 1.084-3.468 1.626-5.496 1.626zM186.737 18.652h9.978c-0.149-0.774-0.466-1.471-0.953-2.091-0.473-0.632-1.061-1.136-1.764-1.51s-1.46-0.561-2.271-0.561c-0.811 0-1.562 0.187-2.251 0.561-0.69 0.361-1.278 0.858-1.764 1.49-0.473 0.619-0.798 1.323-0.974 2.11z"></path>
</symbol>
<symbol id="icon-running" viewBox="0 0 32 32">
<path fill="#efede8" style="fill: var(--color1, #efede8)" d="M29.644 9.451c-0.419-0.501-1.166-0.567-1.667-0.149l-3.282 2.757-1.509-3.739c-0.054-0.14-0.135-0.258-0.229-0.362-0.308-0.686-0.844-1.275-1.582-1.617-0.321-0.146-0.652-0.224-0.983-0.262-0.073-0.038-0.139-0.088-0.222-0.114l-5.776-1.61c-0.324-0.088-0.65-0.031-0.917 0.125-0.317 0.107-0.589 0.338-0.719 0.672l-2.175 5.592c-0.236 0.608 0.066 1.294 0.676 1.534 0.606 0.236 1.294-0.068 1.532-0.678l1.837-4.722 2.63 0.731c-0.064 0.104-0.133 0.201-0.185 0.312l-3.372 7.309c-0.049 0.107-0.075 0.217-0.109 0.328l-4.098 6.871-6.859 2.294c-0.776 0.581-0.941 1.674-0.367 2.45 0.577 0.778 1.674 0.943 2.449 0.369l7.018-2.417c0.215-0.156 0.371-0.36 0.489-0.581 0.088-0.094 0.189-0.168 0.256-0.284l2.443-4.096 4.337 3.696-4.64 5.23c-0.639 0.721-0.575 1.832 0.149 2.469 0.723 0.643 1.83 0.575 2.473-0.149l5.791-6.524c0.18-0.201 0.288-0.433 0.36-0.676 0.043-0.132 0.043-0.269 0.054-0.405 0-0.069 0.026-0.132 0.021-0.196-0.016-0.478-0.21-0.943-0.601-1.274l-3.991-3.403c0.288-0.274 0.532-0.6 0.709-0.983l2.585-5.599 0.828 2.206c0.035 0.196 0.101 0.388 0.239 0.549 0.125 0.149 0.284 0.248 0.454 0.317 0.017 0.009 0.038 0.010 0.059 0.016 0.107 0.038 0.217 0.075 0.329 0.080 0.133 0.012 0.269-0.005 0.405-0.043 0.003-0.002 0.005-0.002 0.005-0.002 0.036-0.009 0.073-0.002 0.109-0.017 0.192-0.073 0.34-0.196 0.466-0.34l4.71-3.998c0.501-0.421 0.289-1.166-0.132-1.667z"></path>
<path fill="#efede8" style="fill: var(--color1, #efede8)" d="M23.686 6.602c1.823 0 3.301-1.478 3.301-3.301s-1.478-3.301-3.301-3.301c-1.823 0-3.301 1.478-3.301 3.301s1.478 3.301 3.301 3.301z"></path>
</symbol>
<symbol id="icon-Polygon" viewBox="0 0 24 32">
<path fill="#efede8" style="fill: var(--color1, #efede8)" d="M24 16l-24 13.857v-27.713l24 13.856z"></path>
</symbol>
<symbol id="icon-menu" viewBox="0 0 32 32">
<path d="M3.675 6.72c-0.659 0.113-0.968 0.521-0.968 1.28 0 0.645 0.221 1.027 0.703 1.212 0.231 0.089 0.912 0.095 12.591 0.095s12.36-0.005 12.591-0.095c0.481-0.185 0.703-0.567 0.703-1.212 0-0.629-0.189-0.976-0.653-1.193l-0.24-0.113-12.24-0.008c-6.732-0.004-12.351 0.012-12.485 0.035zM3.675 14.72c-0.66 0.113-0.968 0.521-0.968 1.28 0 0.645 0.221 1.027 0.703 1.212 0.229 0.089 0.737 0.095 8.591 0.095s8.361-0.005 8.591-0.095c0.483-0.185 0.703-0.567 0.703-1.215 0.001-0.632-0.203-0.992-0.681-1.208-0.201-0.091-0.645-0.096-8.452-0.104-4.532-0.004-8.351 0.012-8.485 0.035zM3.675 22.72c-0.659 0.113-0.968 0.521-0.968 1.28 0 0.645 0.221 1.027 0.703 1.212 0.231 0.089 0.912 0.095 12.591 0.095s12.36-0.005 12.591-0.095c0.481-0.185 0.703-0.567 0.703-1.212 0-0.629-0.189-0.976-0.653-1.193l-0.24-0.113-12.24-0.008c-6.732-0.004-12.351 0.012-12.485 0.035z"></path>
</symbol>
<symbol id="icon-google" viewBox="0 0 32 32">
<path fill="#4285f4" style="fill: var(--color1, #4285f4)" d="M30.080 16.333c0-1.040-0.093-2.040-0.267-3h-13.813v5.68h7.893c-0.347 1.827-1.387 3.373-2.947 4.413v3.693h4.76c2.773-2.56 4.373-6.32 4.373-10.787z"></path>
<path fill="#34a853" style="fill: var(--color2, #34a853)" d="M16 30.667c3.96 0 7.28-1.307 9.707-3.547l-4.76-3.693c-1.307 0.88-2.973 1.413-4.947 1.413-3.813 0-7.053-2.573-8.213-6.040h-4.88v3.787c2.413 4.787 7.36 8.080 13.093 8.080z"></path>
<path fill="#fbbc05" style="fill: var(--color3, #fbbc05)" d="M7.787 18.787c-0.293-0.88-0.467-1.813-0.467-2.787s0.173-1.907 0.467-2.787v-3.787h-4.88c-1 1.973-1.573 4.2-1.573 6.573s0.573 4.6 1.573 6.573l3.8-2.96 1.080-0.827z"></path>
<path fill="#ea4335" style="fill: var(--color4, #ea4335)" d="M16 7.173c2.16 0 4.080 0.747 5.613 2.187l4.2-4.2c-2.547-2.373-5.853-3.827-9.813-3.827-5.733 0-10.68 3.293-13.093 8.093l4.88 3.787c1.16-3.467 4.4-6.040 8.213-6.040z"></path>
</symbol>
<symbol id="icon-Line" viewBox="0 0 87 32">
<path fill="none" stroke="#ef8964" style="stroke: var(--color1, #ef8964)" stroke-linejoin="round" stroke-linecap="round" stroke-miterlimit="4" stroke-width="2" d="M61.051 0.464c-20.416 0.3-65 3.913-60.233 22.304 4.284 12.985 65.327 10.195 80.388 0.425s-5.623-19.937-34.455-16.338"></path>
</symbol>
    </defs>
</svg>